# xmcd
#
# Track frame offsets:
#	150
#	13485
#	27804
#	42524
#	56615
#	70850
#	84719
#	97704
#	111648
#	123718
#
# Disc length: 1904 seconds
#
# Revision: 0
# Processed by: cddbd v1.5.2PL0 Copyright (c) Steve Scherf et al.
# Submitted via: audiograbber 1.83.01
#
DISCID=8b076e0a
DTITLE=Leadbelly - Goodnight Irene
DYEAR=1900
DGENRE=Blues
TTITLE0=Frankie and Albert Part One
TTITLE1=Frankie and Albert Part Two
TTITLE2=Ain't Goin' Down To The Well No Mo'-Goin' Down Old Hannah
TTITLE3=Looky Looky Yonder, Black Belly-Yella Woman's Doorbell
TTITLE4=The Boll Weevil
TTITLE5=Dekalb Blues
TTITLE6=Fannin Street
TTITLE7=Poor Howard-Green Corn
TTITLE8=Goodnight Irene
TTITLE9=John Hardy
EXTD=ID3G: 0
EXTT0=
EXTT1=
EXTT2=
EXTT3=
EXTT4=
EXTT5=
EXTT6=
EXTT7=
EXTT8=
EXTT9=
PLAYORDER=
